<svg width="171" height="70" viewBox="0 0 171 70" fill="none" xmlns="http://www.w3.org/2000/svg">
<path d="M16.7971 26.9658C21.3001 26.1068 25.0306 26.6971 27.1489 27.1976C21.653 21.5894 16.1579 15.9812 10.662 10.373L12.7209 20.205C11.2371 20.3085 9.56311 20.509 7.74719 20.8692C5.89918 21.2357 4.24928 21.6993 2.81836 22.1798L8.34234 30.276C10.0869 29.1892 12.9624 27.6973 16.7963 26.9658H16.7971Z" fill="url(#paint0_linear_897_230)"/>
<path d="M2.80232 49.635L12.433 51.4541C12.8982 49.4521 13.8759 46.3641 16.0704 43.1357C18.6476 39.3442 21.7019 37.124 23.5539 35.9794C15.7023 35.9 7.85066 35.8206 -0.000976562 35.7412L8.40731 41.2371C7.43116 42.36 6.38925 43.6851 5.36018 45.2235C4.31265 46.79 3.47367 48.2843 2.80152 49.635H2.80232Z" fill="url(#paint1_linear_897_230)"/>
<path d="M44.4794 15.0961C47.2915 13.4927 49.9344 12.7789 51.8161 12.4396C51.1696 9.12214 50.5231 5.80551 49.8766 2.48807C48.4666 3.27733 46.957 4.20615 45.393 5.29939C44.0455 6.24024 42.8287 7.18349 41.7379 8.09627C39.8618 5.39725 37.9857 2.69902 36.1088 0C34.2327 2.69902 32.3559 5.39725 30.4798 8.09627C29.3889 7.18349 28.1722 6.24024 26.8255 5.29939C25.2606 4.20615 23.7519 3.27733 22.3418 2.48807C21.6953 5.80551 21.0488 9.12214 20.4023 12.4396C22.284 12.7789 24.9261 13.4927 27.739 15.0961C32.3526 17.7261 34.9201 21.3243 36.1088 23.2758C37.2975 21.3243 39.8658 17.7261 44.4794 15.0961Z" fill="url(#paint2_linear_897_230)"/>
<path d="M20.4027 59.4755L22.2362 69.3427L30.6485 63.587L34.0646 37.9707L10.6621 61.4999L20.4027 59.4755Z" fill="url(#paint3_linear_897_230)"/>
<path d="M45.0701 27.1976C47.1884 26.6971 50.919 26.1068 55.4219 26.9658C59.2567 27.6973 62.1321 29.1892 63.8759 30.276L69.3999 22.1798C67.9697 21.6993 66.3198 21.2357 64.471 20.8692C62.6551 20.509 60.9811 20.3085 59.4973 20.205L61.5562 10.373C56.0603 15.9812 50.5652 21.5894 45.0693 27.1976H45.0701Z" fill="url(#paint4_linear_897_230)"/>
<path d="M63.8107 41.2371L72.219 35.7412C64.3673 35.8206 56.5157 35.9 48.6641 35.9794C50.5161 37.1232 53.5712 39.3434 56.1475 43.1357C58.3421 46.3641 59.3198 49.4529 59.785 51.4541L69.4157 49.635C68.7435 48.2843 67.9053 46.7892 66.857 45.2235C65.8279 43.6851 64.786 42.36 63.8099 41.2371H63.8107Z" fill="url(#paint5_linear_897_230)"/>
<path d="M41.5696 63.587L49.9819 69.3427L51.8163 59.4755L61.5568 61.4999L38.1543 37.9707L41.5696 63.587Z" fill="url(#paint6_linear_897_230)"/>
<path d="M81 27.8793L91.2523 16.9782V16.7319H81V14.2246H94.5432V17.3584L84.291 28.2595V28.4833H94.6996V31.0131H81V27.8793Z" fill="white"/>
<path d="M96.1084 31.0131L102.958 14.2246H106.114L112.987 31.0131H110.099L108.353 26.6931H100.563L98.817 31.0131H96.1084ZM104.346 17.3584L101.525 24.3197H107.39L104.57 17.3584H104.346Z" fill="white"/>
<path d="M115.583 31.0131V14.2246H119.098L127.626 27.297H127.85V14.2246H130.469V31.0131H126.954L118.426 17.9182H118.202V31.0131H115.583Z" fill="white"/>
<path d="M148.959 25.2597C148.959 27.2 148.295 28.6806 146.966 29.7033C145.638 30.7251 143.72 31.2369 141.214 31.2369C138.707 31.2369 136.789 30.7259 135.461 29.7033C134.133 28.6806 133.469 27.2 133.469 25.2597V19.9772C133.469 18.0369 134.133 16.5563 135.461 15.5336C136.789 14.5109 138.707 14 141.214 14C143.72 14 145.639 14.5109 146.966 15.5336C148.295 16.5554 148.959 18.0369 148.959 19.9772V25.2597ZM145.041 27.767C145.922 27.1406 146.362 26.215 146.362 24.991V20.2451C146.362 19.0211 145.922 18.0922 145.041 17.4578C144.161 16.8233 142.885 16.5065 141.214 16.5065C139.542 16.5065 138.288 16.8233 137.409 17.4578C136.528 18.0922 136.088 19.0211 136.088 20.2451V24.991C136.088 26.1997 136.524 27.1213 137.397 27.7558C138.27 28.3902 139.543 28.7071 141.214 28.7071C142.884 28.7071 144.161 28.3935 145.041 27.767Z" fill="white"/>
<path d="M153.727 29.7033C152.399 28.6806 151.734 27.2 151.734 25.2597V19.9772C151.734 18.0369 152.399 16.5563 153.727 15.5336C155.055 14.5109 156.958 14 159.435 14C160.39 14 161.36 14.0706 162.345 14.2126C163.33 14.3545 164.233 14.5518 165.054 14.8061L164.472 17.2685C163.86 17.0592 163.102 16.8883 162.199 16.7536C161.296 16.6196 160.419 16.5522 159.569 16.5522C157.883 16.5522 156.592 16.8731 155.697 17.5147C154.802 18.1564 154.353 19.082 154.353 20.2908V24.9469C154.353 26.1853 154.808 27.1181 155.718 27.7454C156.629 28.3726 157.964 28.6854 159.726 28.6854C160.695 28.6854 161.614 28.6036 162.479 28.4392C163.345 28.2747 164.158 28.0365 164.919 27.7229V30.3417C164.113 30.6257 163.24 30.8454 162.3 31.0018C161.36 31.1583 160.412 31.2369 159.458 31.2369C156.966 31.2369 155.055 30.7259 153.727 29.7033Z" fill="white"/>
<path d="M167.896 31.0131V14.2246H170.515V31.0131H167.896Z" fill="white"/>
<path d="M81.4893 58.291V37.3076H84.7626V58.291H81.4893Z" fill="white"/>
<path d="M88.0086 58.291L96.5701 37.3076H100.515L109.104 58.291H105.495L103.312 52.8914H93.5759L91.3934 58.291H88.0078H88.0086ZM98.3042 41.2242L94.779 49.9253H102.109L98.5841 41.2242H98.3042Z" fill="white"/>
<path d="M113.272 56.6546C111.612 55.3769 110.782 53.5257 110.782 51.1009V44.4982C110.782 42.0735 111.612 40.2222 113.272 38.9445C114.932 37.6668 117.31 37.0283 120.406 37.0283C121.6 37.0283 122.813 37.1165 124.044 37.2938C125.275 37.4711 126.404 37.7181 127.43 38.0349L126.702 41.1126C125.937 40.8511 124.99 40.6369 123.862 40.4693C122.733 40.3016 121.638 40.2174 120.574 40.2174C118.466 40.2174 116.853 40.6185 115.734 41.4206C114.615 42.2226 114.055 43.3792 114.055 44.8896V50.7087C114.055 52.2568 114.623 53.423 115.762 54.2058C116.9 54.9895 118.569 55.3809 120.77 55.3809C121.983 55.3809 123.13 55.2782 124.211 55.0729C125.292 54.8675 126.309 54.5692 127.26 54.1777V57.4511C126.253 57.8056 125.162 58.0807 123.987 58.2764C122.812 58.4721 121.627 58.57 120.434 58.57C117.319 58.57 114.931 57.9315 113.271 56.6538L113.272 56.6546Z" fill="white"/>
<path d="M149.756 51.1009C149.756 53.5257 148.926 55.3769 147.267 56.6546C145.606 57.9323 143.21 58.5708 140.076 58.5708C136.942 58.5708 134.546 57.9323 132.885 56.6546C131.225 55.3769 130.396 53.5257 130.396 51.1009V44.4982C130.396 42.0735 131.226 40.2222 132.885 38.9445C134.546 37.6668 136.942 37.0283 140.076 37.0283C143.21 37.0283 145.606 37.6668 147.267 38.9445C148.927 40.2222 149.756 42.0735 149.756 44.4982V51.1009ZM144.86 54.2347C145.961 53.4511 146.511 52.2953 146.511 50.7657V44.8342C146.511 43.3047 145.961 42.144 144.86 41.3508C143.76 40.5583 142.165 40.1613 140.076 40.1613C137.986 40.1613 136.42 40.5575 135.32 41.3508C134.219 42.1432 133.669 43.3047 133.669 44.8342V50.7657C133.669 52.2768 134.214 53.4286 135.306 54.2211C136.397 55.0135 137.987 55.4098 140.076 55.4098C142.165 55.4098 143.76 55.0183 144.86 54.2347Z" fill="white"/>
<path d="M153.533 58.291V37.3076H163.186C165.909 37.3076 167.778 37.6621 168.795 38.3704C169.812 39.0794 170.32 40.2826 170.32 41.9798V44.2184C170.32 45.0766 170.096 45.7945 169.649 46.3728C169.201 46.9511 168.53 47.3891 167.634 47.6874C168.697 48.0043 169.485 48.4759 169.998 49.1007C170.511 49.7255 170.768 50.5044 170.768 51.4372V53.7031C170.768 55.3442 170.236 56.5192 169.173 57.2283C168.11 57.9373 166.282 58.291 163.689 58.291H153.533ZM156.807 40.1334V46.4001H162.878C164.519 46.4001 165.624 46.2276 166.193 45.8827C166.761 45.5378 167.046 44.9363 167.046 44.078V42.4273C167.046 41.5691 166.766 40.9724 166.207 40.6371C165.647 40.301 164.538 40.1334 162.878 40.1334H156.807ZM156.807 49.0582V55.4653H163.325C164.855 55.4653 165.932 55.288 166.557 54.9335C167.182 54.579 167.494 53.9822 167.494 53.1432V51.3802C167.494 50.522 167.195 49.9204 166.598 49.5755C166.002 49.2306 164.911 49.0582 163.325 49.0582H156.807Z" fill="white"/>
<defs>
<linearGradient id="paint0_linear_897_230" x1="-14.0455" y1="54.0258" x2="50.7527" y2="-15.2745" gradientUnits="userSpaceOnUse">
<stop stop-color="#4E7CF2"/>
<stop offset="1" stop-color="#1B44FA"/>
</linearGradient>
<linearGradient id="paint1_linear_897_230" x1="-8.43733" y1="59.2696" x2="56.3609" y2="-10.0307" gradientUnits="userSpaceOnUse">
<stop stop-color="#4E7CF2"/>
<stop offset="1" stop-color="#1B5AFA"/>
</linearGradient>
<linearGradient id="paint2_linear_897_230" x1="-9.99757" y1="57.8104" x2="54.8015" y2="-11.4899" gradientUnits="userSpaceOnUse">
<stop stop-color="#4E7CF2"/>
<stop offset="1" stop-color="#1B5AFA"/>
</linearGradient>
<linearGradient id="paint3_linear_897_230" x1="8.71785" y1="75.3103" x2="73.5169" y2="6.00993" gradientUnits="userSpaceOnUse">
<stop stop-color="#4E7CF2"/>
<stop offset="1" stop-color="#1B5AFA"/>
</linearGradient>
<linearGradient id="paint4_linear_897_230" x1="9.89541" y1="76.4113" x2="74.6944" y2="7.11096" gradientUnits="userSpaceOnUse">
<stop stop-color="#4E7CF2"/>
<stop offset="1" stop-color="#1B5AFA"/>
</linearGradient>
<linearGradient id="paint5_linear_897_230" x1="19.351" y1="85.2533" x2="84.15" y2="15.9529" gradientUnits="userSpaceOnUse">
<stop stop-color="#4E7CF2"/>
<stop offset="1" stop-color="#1B5AFA"/>
</linearGradient>
<linearGradient id="paint6_linear_897_230" x1="17.9072" y1="83.903" x2="82.7062" y2="14.6027" gradientUnits="userSpaceOnUse">
<stop stop-color="#4E7CF2"/>
<stop offset="1" stop-color="#1B5AFA"/>
</linearGradient>
</defs>
</svg>
