<svg width="200" height="82" viewBox="0 0 200 82" fill="none" xmlns="http://www.w3.org/2000/svg">
<g clip-path="url(#clip0_297_656)">
<path d="M19.7615 31.724C25.0591 30.7134 29.4479 31.4079 31.9401 31.9968C25.4743 25.3989 19.0095 18.801 12.5437 12.2031L14.966 23.7702C13.2203 23.8919 11.2509 24.1278 9.11454 24.5515C6.94041 24.9827 4.99936 25.5282 3.31592 26.0934L9.81471 35.6184C11.8671 34.3398 15.25 32.5846 19.7606 31.724H19.7615Z" fill="url(#paint0_linear_297_656)"/>
<path d="M3.29702 58.3939L14.6272 60.5341C15.1745 58.1788 16.3248 54.5458 18.9066 50.7477C21.9385 46.2871 25.5318 43.6752 27.7107 42.3286C18.4735 42.2352 9.23624 42.1418 -0.000976562 42.0483L9.89112 48.5141C8.74272 49.8352 7.51694 51.3941 6.30626 53.204C5.07388 55.0469 4.08684 56.8049 3.29607 58.3939H3.29702Z" fill="url(#paint1_linear_297_656)"/>
<path d="M52.3289 17.7601C55.6373 15.8738 58.7465 15.0339 60.9603 14.6348C60.1997 10.7319 59.4392 6.83001 58.6786 2.92715C57.0197 3.85568 55.2438 4.94841 53.4037 6.23458C51.8184 7.34146 50.3869 8.45117 49.1035 9.52502C46.8964 6.3497 44.6892 3.17532 42.4811 0C40.274 3.17532 38.0659 6.3497 35.8587 9.52502C34.5754 8.45117 33.1439 7.34146 31.5595 6.23458C29.7185 4.94841 27.9435 3.85568 26.2846 2.92715C25.5241 6.83001 24.7635 10.7319 24.0029 14.6348C26.2167 15.0339 29.325 15.8738 32.6343 17.7601C38.0621 20.8543 41.0827 25.0874 42.4811 27.3833C43.8796 25.0874 46.9011 20.8543 52.3289 17.7601Z" fill="url(#paint2_linear_297_656)"/>
<path d="M24.0034 69.9714L26.1606 81.5799L36.0574 74.8084L40.0763 44.6716L12.5439 72.3531L24.0034 69.9714Z" fill="url(#paint3_linear_297_656)"/>
<path d="M53.0234 31.9968C55.5155 31.4079 59.9044 30.7134 65.2019 31.724C69.7134 32.5846 73.0963 34.3398 75.1478 35.6184L81.6466 26.0934C79.9641 25.5282 78.023 24.9827 75.848 24.5515C73.7116 24.1278 71.7422 23.8919 69.9965 23.7702L72.4188 12.2031C65.9531 18.801 59.4882 25.3989 53.0225 31.9968H53.0234Z" fill="url(#paint4_linear_297_656)"/>
<path d="M75.0715 48.5141L84.9636 42.0483C75.7264 42.1418 66.4892 42.2352 57.252 42.3286C59.4308 43.6742 63.0251 46.2862 66.056 50.7477C68.6378 54.5458 69.7881 58.1797 70.3354 60.5341L81.6656 58.3939C80.8748 56.8049 79.8887 55.0459 78.6554 53.204C77.4447 51.3941 76.219 49.8352 75.0706 48.5141H75.0715Z" fill="url(#paint5_linear_297_656)"/>
<path d="M48.9057 74.8084L58.8025 81.5799L60.9606 69.9714L72.4201 72.3531L44.8877 44.6716L48.9057 74.8084Z" fill="url(#paint6_linear_297_656)"/>
<path d="M94.3906 22.5339L106.452 9.70897V9.41928H94.3906V6.46948H110.324V10.1563L98.2623 22.9812V23.2444H110.508V26.2206H94.3906V22.5339Z" fill="white"/>
<path d="M112.166 26.2206L120.225 6.46948H123.938L132.023 26.2206H128.626L126.571 21.1382H117.407L115.353 26.2206H112.166ZM121.857 10.1563L118.538 18.346H125.438L122.12 10.1563H121.857Z" fill="white"/>
<path d="M135.077 26.2206V6.46948H139.212L149.246 21.8488H149.509V6.46948H152.59V26.2206H148.455L138.421 10.8149H138.158V26.2206H135.077Z" fill="white"/>
<path d="M174.343 19.452C174.343 21.7347 173.561 23.4766 171.999 24.6798C170.436 25.8819 168.18 26.484 165.231 26.484C162.282 26.484 160.025 25.8829 158.463 24.6798C156.9 23.4766 156.119 21.7347 156.119 19.452V13.2373C156.119 10.9546 156.9 9.21268 158.463 8.00955C160.026 6.80642 162.282 6.20532 165.231 6.20532C168.18 6.20532 170.437 6.80642 171.999 8.00955C173.561 9.21173 174.343 10.9546 174.343 13.2373V19.452ZM169.734 22.4018C170.77 21.6648 171.288 20.5759 171.288 19.1359V13.5524C171.288 12.1125 170.77 11.0197 169.734 10.2733C168.698 9.52691 167.197 9.15417 165.231 9.15417C163.264 9.15417 161.789 9.52691 160.754 10.2733C159.718 11.0197 159.2 12.1125 159.2 13.5524V19.1359C159.2 20.558 159.713 21.6422 160.741 22.3886C161.768 23.135 163.265 23.5078 165.231 23.5078C167.196 23.5078 168.699 23.1388 169.734 22.4018Z" fill="white"/>
<path d="M179.953 24.6798C178.39 23.4766 177.609 21.7347 177.609 19.452V13.2373C177.609 10.9546 178.39 9.21268 179.953 8.00955C181.515 6.80642 183.754 6.20532 186.668 6.20532C187.792 6.20532 188.933 6.28836 190.092 6.45538C191.251 6.62241 192.313 6.85454 193.279 7.15367L192.594 10.0506C191.874 9.80434 190.983 9.60334 189.92 9.44481C188.858 9.28722 187.826 9.20796 186.826 9.20796C184.843 9.20796 183.323 9.58541 182.27 10.3403C181.217 11.0952 180.69 12.1842 180.69 13.6062V19.084C180.69 20.541 181.225 21.6384 182.296 22.3763C183.367 23.1143 184.938 23.4823 187.01 23.4823C188.151 23.4823 189.231 23.386 190.25 23.1926C191.268 22.9991 192.225 22.7189 193.12 22.3499V25.4309C192.172 25.7649 191.145 26.0235 190.039 26.2075C188.933 26.3915 187.818 26.484 186.695 26.484C183.763 26.484 181.515 25.8829 179.953 24.6798Z" fill="white"/>
<path d="M196.622 26.2206V6.46948H199.703V26.2206H196.622Z" fill="white"/>
<path d="M94.9673 58.3126V33.6262H98.8182V58.3126H94.9673Z" fill="white"/>
<path d="M102.636 58.3126L112.709 33.6262H117.349L127.455 58.3126H123.208L120.641 51.9601H109.186L106.618 58.3126H102.635H102.636ZM114.749 38.234L110.601 48.4705H119.225L115.078 38.234H114.749Z" fill="white"/>
<path d="M132.359 56.3876C130.405 54.8844 129.43 52.7065 129.43 49.8539V42.0859C129.43 39.2333 130.406 37.0554 132.359 35.5522C134.312 34.049 137.11 33.2979 140.752 33.2979C142.156 33.2979 143.583 33.4017 145.032 33.6102C146.48 33.8187 147.808 34.1094 149.015 34.4821L148.159 38.1028C147.259 37.7952 146.145 37.5433 144.818 37.346C143.49 37.1488 142.201 37.0497 140.95 37.0497C138.47 37.0497 136.572 37.5216 135.255 38.4652C133.938 39.4088 133.28 40.7695 133.28 42.5464V49.3924C133.28 51.2137 133.949 52.5857 135.288 53.5067C136.627 54.4286 138.59 54.8891 141.18 54.8891C142.607 54.8891 143.956 54.7683 145.228 54.5267C146.5 54.2852 147.697 53.9341 148.816 53.4737V57.3246C147.63 57.7417 146.347 58.0654 144.965 58.2956C143.582 58.5259 142.189 58.641 140.784 58.641C137.12 58.641 134.311 57.8899 132.358 56.3866L132.359 56.3876Z" fill="white"/>
<path d="M175.281 49.8539C175.281 52.7065 174.304 54.8844 172.352 56.3876C170.398 57.8908 167.579 58.6419 163.892 58.6419C160.205 58.6419 157.386 57.8908 155.432 56.3876C153.479 54.8844 152.503 52.7065 152.503 49.8539V42.0859C152.503 39.2333 153.48 37.0554 155.432 35.5522C157.386 34.049 160.205 33.2979 163.892 33.2979C167.579 33.2979 170.398 34.049 172.352 35.5522C174.305 37.0554 175.281 39.2333 175.281 42.0859V49.8539ZM169.521 53.5406C170.816 52.6187 171.463 51.2589 171.463 49.4594V42.4813C171.463 40.6818 170.816 39.3163 169.521 38.3831C168.226 37.4508 166.35 36.9837 163.892 36.9837C161.434 36.9837 159.591 37.4498 158.296 38.3831C157.002 39.3154 156.354 40.6818 156.354 42.4813V49.4594C156.354 51.2372 156.996 52.5923 158.28 53.5246C159.564 54.4569 161.435 54.9231 163.892 54.9231C166.349 54.9231 168.226 54.4626 169.521 53.5406Z" fill="white"/>
<path d="M179.724 58.3126V33.6262H191.08C194.283 33.6262 196.483 34.0433 197.68 34.8765C198.875 35.7107 199.473 37.1262 199.473 39.1229V41.7566C199.473 42.7662 199.21 43.6108 198.684 44.2912C198.157 44.9715 197.367 45.4867 196.313 45.8378C197.563 46.2105 198.491 46.7654 199.095 47.5004C199.698 48.2355 200 49.1518 200 50.2492V52.915C200 54.8457 199.374 56.2281 198.124 57.0623C196.874 57.8964 194.723 58.3126 191.672 58.3126H179.724ZM183.575 36.9506V44.3232H190.717C192.648 44.3232 193.948 44.1204 194.617 43.7146C195.286 43.3088 195.622 42.6011 195.622 41.5914V39.6494C195.622 38.6397 195.292 37.9377 194.634 37.5432C193.976 37.1479 192.671 36.9506 190.717 36.9506H183.575ZM183.575 47.4504V54.9882H191.244C193.043 54.9882 194.311 54.7796 195.046 54.3625C195.781 53.9454 196.148 53.2434 196.148 52.2564V50.1822C196.148 49.1726 195.797 48.4648 195.095 48.0591C194.393 47.6533 193.11 47.4504 191.244 47.4504H183.575Z" fill="white"/>
<path d="M99.4918 67.1101C100.004 67.3715 100.397 67.7443 100.67 68.2293C100.943 68.7143 101.08 69.2852 101.08 69.942C101.08 70.5988 100.943 71.1678 100.67 71.65C100.397 72.1322 100.004 72.5002 99.4918 72.755C98.9794 73.0097 98.3736 73.1371 97.6734 73.1371H95.6758V66.7195H97.6734C98.3736 66.7195 98.9794 66.8497 99.4918 67.1111V67.1101ZM99.5702 71.7868C100.006 71.348 100.224 70.7328 100.224 69.941C100.224 69.1493 100.004 68.5199 99.5654 68.0717C99.1266 67.6235 98.4963 67.3998 97.6734 67.3998H96.5137V72.4454H97.6734C98.502 72.4454 99.1342 72.2265 99.5702 71.7868Z" fill="#C6C6C6"/>
<path d="M106.761 70.9262H102.727C102.758 71.4235 102.928 71.8113 103.239 72.0907C103.548 72.37 103.925 72.5096 104.367 72.5096C104.729 72.5096 105.031 72.4257 105.273 72.2567C105.516 72.0878 105.686 71.8623 105.785 71.5802H106.687C106.552 72.0652 106.282 72.4596 105.876 72.7635C105.472 73.0673 104.968 73.2192 104.367 73.2192C103.888 73.2192 103.46 73.1117 103.082 72.8975C102.705 72.6823 102.408 72.3775 102.193 71.9812C101.978 71.5849 101.871 71.1263 101.871 70.6044C101.871 70.0826 101.975 69.625 102.184 69.2324C102.392 68.8399 102.686 68.5369 103.063 68.3256C103.441 68.1142 103.875 68.0076 104.367 68.0076C104.858 68.0076 105.269 68.1123 105.637 68.3209C106.005 68.5294 106.289 68.8163 106.488 69.1814C106.687 69.5466 106.787 69.959 106.787 70.4195C106.787 70.579 106.777 70.7479 106.76 70.9262H106.761ZM105.711 69.4211C105.57 69.1909 105.378 69.0163 105.136 68.8965C104.893 68.7766 104.624 68.7172 104.33 68.7172C103.906 68.7172 103.546 68.8521 103.248 69.122C102.95 69.3919 102.78 69.7665 102.737 70.2449H105.923C105.923 69.926 105.852 69.6514 105.711 69.4211Z" fill="#C6C6C6"/>
<path d="M108.64 73.0212C108.333 72.8891 108.09 72.7051 107.912 72.4692C107.734 72.2333 107.636 71.9615 107.618 71.6548H108.483C108.508 71.9068 108.625 72.1125 108.838 72.2719C109.05 72.4314 109.328 72.5116 109.671 72.5116C109.99 72.5116 110.242 72.4409 110.426 72.3003C110.61 72.1587 110.702 71.9813 110.702 71.7662C110.702 71.551 110.604 71.3812 110.408 71.2736C110.212 71.166 109.908 71.0603 109.496 70.9556C109.122 70.8574 108.816 70.7574 108.58 70.6564C108.344 70.5555 108.141 70.4045 107.972 70.2054C107.804 70.0063 107.72 69.744 107.72 69.4184C107.72 69.1608 107.796 68.9239 107.95 68.7097C108.103 68.4946 108.321 68.3247 108.604 68.1992C108.886 68.0737 109.209 68.0105 109.571 68.0105C110.13 68.0105 110.581 68.152 110.924 68.4342C111.268 68.7163 111.452 69.1032 111.476 69.5939H110.638C110.619 69.3297 110.514 69.1183 110.32 68.9589C110.127 68.7994 109.867 68.7192 109.542 68.7192C109.241 68.7192 109.002 68.7833 108.824 68.9126C108.645 69.0419 108.557 69.2108 108.557 69.4193C108.557 69.5854 108.61 69.7213 108.718 69.8289C108.826 69.9365 108.96 70.0223 109.123 70.0865C109.285 70.1507 109.511 70.2233 109.799 70.3026C110.162 70.4007 110.456 70.4979 110.684 70.5923C110.911 70.6876 111.105 70.8301 111.269 71.0207C111.431 71.2113 111.516 71.4595 111.521 71.7662C111.521 72.0426 111.445 72.2908 111.291 72.5116C111.137 72.7324 110.921 72.9061 110.642 73.0316C110.363 73.1571 110.042 73.2203 109.68 73.2203C109.293 73.2203 108.946 73.1542 108.639 73.0221L108.64 73.0212Z" fill="#C6C6C6"/>
<path d="M112.727 67.1054C112.617 66.995 112.561 66.86 112.561 66.7005C112.561 66.5411 112.617 66.4061 112.727 66.2957C112.838 66.1853 112.972 66.1296 113.132 66.1296C113.291 66.1296 113.416 66.1844 113.524 66.2957C113.631 66.4061 113.685 66.5411 113.685 66.7005C113.685 66.86 113.631 66.995 113.524 67.1054C113.416 67.2158 113.286 67.2714 113.132 67.2714C112.978 67.2714 112.838 67.2158 112.727 67.1054ZM113.538 68.0905V73.1361H112.7V68.0905H113.538Z" fill="#C6C6C6"/>
<path d="M118.192 68.2925C118.52 68.4832 118.764 68.7219 118.924 69.0106V68.0897H119.772V73.2457C119.772 73.7062 119.673 74.1157 119.477 74.4752C119.281 74.8347 119 75.115 118.634 75.3179C118.269 75.5208 117.844 75.6217 117.36 75.6217C116.696 75.6217 116.144 75.4651 115.703 75.1518C115.261 74.8385 115 74.412 114.92 73.8722H115.749C115.841 74.1789 116.031 74.4262 116.32 74.6139C116.608 74.8008 116.955 74.8942 117.361 74.8942C117.821 74.8942 118.197 74.7498 118.488 74.4611C118.78 74.1723 118.925 73.7675 118.925 73.2457V72.1869C118.759 72.4813 118.514 72.7267 118.188 72.9239C117.863 73.1202 117.482 73.2183 117.046 73.2183C116.61 73.2183 116.191 73.1079 115.826 72.8871C115.461 72.6663 115.174 72.3568 114.966 71.9567C114.757 71.5575 114.652 71.1036 114.652 70.5941C114.652 70.0845 114.757 69.6259 114.966 69.2362C115.174 68.8465 115.461 68.5445 115.826 68.3293C116.191 68.1142 116.598 68.0076 117.046 68.0076C117.495 68.0076 117.864 68.1029 118.193 68.2925H118.192ZM118.694 69.6089C118.54 69.3268 118.333 69.1097 118.072 68.9597C117.811 68.8097 117.524 68.7342 117.211 68.7342C116.899 68.7342 116.613 68.8078 116.356 68.955C116.098 69.1022 115.892 69.3173 115.738 69.5995C115.585 69.8816 115.508 70.2128 115.508 70.5941C115.508 70.9753 115.585 71.3169 115.738 71.6019C115.891 71.8878 116.097 72.1048 116.356 72.2558C116.613 72.4058 116.899 72.4813 117.211 72.4813C117.524 72.4813 117.812 72.4058 118.072 72.2558C118.333 72.1058 118.54 71.8878 118.694 71.6019C118.847 71.3169 118.924 70.9838 118.924 70.6026C118.924 70.2213 118.848 69.8911 118.694 69.608V69.6089Z" fill="#C6C6C6"/>
<path d="M125.138 68.5558C125.518 68.9276 125.709 69.4626 125.709 70.1628V73.1371H124.88V70.2826C124.88 69.7797 124.755 69.3937 124.503 69.1267C124.251 68.8596 123.908 68.7266 123.472 68.7266C123.036 68.7266 122.678 68.8643 122.418 69.1408C122.156 69.4173 122.026 69.8193 122.026 70.3468V73.1362H121.188V68.0906H122.026V68.8087C122.192 68.551 122.418 68.351 122.703 68.2104C122.988 68.0689 123.303 67.999 123.646 67.999C124.26 67.999 124.757 68.1849 125.138 68.5558Z" fill="#C6C6C6"/>
<path d="M134.465 73.1363L133.627 72.2889C133.313 72.6144 132.979 72.8551 132.623 73.0117C132.267 73.1684 131.865 73.2467 131.417 73.2467C130.968 73.2467 130.583 73.1665 130.243 73.007C129.902 72.8475 129.638 72.6201 129.451 72.3257C129.263 72.0313 129.17 71.6869 129.17 71.2943C129.17 70.8461 129.297 70.4516 129.552 70.111C129.807 69.7703 130.182 69.5024 130.68 69.3051C130.483 69.0721 130.342 68.8569 130.256 68.6606C130.17 68.4644 130.127 68.2492 130.127 68.0161C130.127 67.7462 130.196 67.5019 130.334 67.2839C130.472 67.0659 130.67 66.896 130.928 66.7734C131.186 66.6507 131.484 66.5894 131.821 66.5894C132.157 66.5894 132.441 66.6535 132.686 66.7828C132.931 66.9121 133.115 67.0914 133.238 67.3216C133.361 67.5519 133.416 67.8085 133.404 68.0907H132.566C132.572 67.8387 132.502 67.6415 132.355 67.4971C132.207 67.3528 132.017 67.281 131.784 67.281C131.538 67.281 131.34 67.3499 131.19 67.4886C131.04 67.6264 130.965 67.8029 130.965 68.018C130.965 68.202 131.016 68.3804 131.117 68.5521C131.218 68.7239 131.388 68.9362 131.628 69.1872L133.543 71.1112L133.709 70.8536L134.334 69.8043H135.237L134.482 71.1122C134.377 71.2962 134.254 71.4896 134.114 71.6925L135.559 73.1382H134.464L134.465 73.1363ZM132.315 72.3351C132.582 72.2059 132.835 72.0067 133.075 71.7369L131.187 69.8402C130.401 70.1412 130.009 70.6168 130.009 71.2669C130.009 71.6293 130.139 71.9303 130.4 72.1691C130.661 72.4087 131.001 72.5286 131.418 72.5286C131.749 72.5286 132.048 72.4644 132.315 72.3351Z" fill="#C6C6C6"/>
<path d="M142.618 67.1101C143.13 67.3715 143.523 67.7443 143.796 68.2293C144.069 68.7143 144.206 69.2852 144.206 69.942C144.206 70.5988 144.069 71.1678 143.796 71.65C143.523 72.1322 143.13 72.5002 142.618 72.755C142.105 73.0097 141.5 73.1371 140.799 73.1371H138.802V66.7195H140.799C141.5 66.7195 142.105 66.8497 142.618 67.1111V67.1101ZM142.696 71.7868C143.132 71.348 143.35 70.7328 143.35 69.941C143.35 69.1493 143.13 68.5199 142.691 68.0717C142.253 67.6235 141.622 67.3998 140.799 67.3998H139.64V72.4454H140.799C141.628 72.4454 142.26 72.2265 142.696 71.7868Z" fill="#C6C6C6"/>
<path d="M149.886 70.9262H145.853C145.884 71.4235 146.054 71.8113 146.365 72.0907C146.674 72.37 147.051 72.5096 147.492 72.5096C147.855 72.5096 148.157 72.4257 148.399 72.2567C148.642 72.0878 148.812 71.8623 148.911 71.5802H149.813C149.678 72.0652 149.408 72.4596 149.002 72.7635C148.597 73.0673 148.094 73.2192 147.492 73.2192C147.014 73.2192 146.586 73.1117 146.208 72.8975C145.831 72.6823 145.534 72.3775 145.319 71.9812C145.104 71.5849 144.997 71.1263 144.997 70.6044C144.997 70.0826 145.101 69.625 145.31 69.2324C145.518 68.8399 145.812 68.5369 146.189 68.3256C146.567 68.1142 147.001 68.0076 147.492 68.0076C147.984 68.0076 148.395 68.1123 148.763 68.3209C149.131 68.5294 149.415 68.8163 149.614 69.1814C149.813 69.5466 149.913 69.959 149.913 70.4195C149.913 70.579 149.903 70.7479 149.886 70.9262H149.886ZM148.837 69.4211C148.696 69.1909 148.504 69.0163 148.262 68.8965C148.019 68.7766 147.75 68.7172 147.456 68.7172C147.032 68.7172 146.672 68.8521 146.374 69.122C146.076 69.3919 145.906 69.7665 145.863 70.2449H149.049C149.049 69.926 148.978 69.6514 148.837 69.4211Z" fill="#C6C6C6"/>
<path d="M152.897 72.3624L154.462 68.0906H155.355L153.375 73.1362H152.4L150.42 68.0906H151.322L152.896 72.3624H152.897Z" fill="#C6C6C6"/>
<path d="M160.76 70.9262H156.727C156.757 71.4235 156.928 71.8113 157.238 72.0907C157.548 72.37 157.924 72.5096 158.366 72.5096C158.728 72.5096 159.03 72.4257 159.273 72.2567C159.515 72.0878 159.685 71.8623 159.784 71.5802H160.686C160.551 72.0652 160.282 72.4596 159.876 72.7635C159.471 73.0673 158.967 73.2192 158.366 73.2192C157.888 73.2192 157.459 73.1117 157.082 72.8975C156.704 72.6823 156.408 72.3775 156.193 71.9812C155.978 71.5849 155.87 71.1263 155.87 70.6044C155.87 70.0826 155.975 69.625 156.183 69.2324C156.392 68.8399 156.685 68.5369 157.063 68.3256C157.44 68.1142 157.874 68.0076 158.366 68.0076C158.858 68.0076 159.268 68.1123 159.636 68.3209C160.004 68.5294 160.288 68.8163 160.487 69.1814C160.686 69.5466 160.786 69.959 160.786 70.4195C160.786 70.579 160.777 70.7479 160.759 70.9262H160.76ZM159.711 69.4211C159.569 69.1909 159.378 69.0163 159.135 68.8965C158.893 68.7766 158.624 68.7172 158.329 68.7172C157.906 68.7172 157.545 68.8521 157.248 69.122C156.95 69.3919 156.78 69.7665 156.736 70.2449H159.922C159.922 69.926 159.851 69.6514 159.711 69.4211Z" fill="#C6C6C6"/>
<path d="M162.731 66.3232V73.1363H161.893V66.3232H162.731Z" fill="#C6C6C6"/>
<path d="M165.073 72.8965C164.689 72.6813 164.389 72.3766 164.171 71.9802C163.953 71.5839 163.845 71.1253 163.845 70.6035C163.845 70.0816 163.957 69.6325 164.181 69.2361C164.404 68.8398 164.71 68.536 165.097 68.3246C165.484 68.1132 165.916 68.0066 166.395 68.0066C166.875 68.0066 167.307 68.1123 167.694 68.3246C168.081 68.5369 168.385 68.8389 168.61 69.2314C168.834 69.624 168.946 70.0816 168.946 70.6035C168.946 71.1253 168.831 71.5839 168.601 71.9802C168.37 72.3766 168.059 72.6813 167.666 72.8965C167.274 73.1116 166.838 73.2183 166.36 73.2183C165.881 73.2183 165.458 73.1107 165.075 72.8965H165.073ZM167.205 72.2709C167.469 72.1293 167.682 71.9179 167.845 71.6358C168.007 71.3537 168.089 71.0102 168.089 70.6044C168.089 70.1986 168.009 69.8552 167.85 69.573C167.69 69.2909 167.481 69.0804 167.224 68.9427C166.966 68.8049 166.687 68.7351 166.386 68.7351C166.085 68.7351 165.798 68.804 165.543 68.9427C165.288 69.0804 165.085 69.2909 164.931 69.573C164.777 69.8552 164.701 70.1986 164.701 70.6044C164.701 71.0102 164.776 71.3631 164.926 71.6452C165.076 71.9274 165.277 72.1378 165.529 72.2756C165.781 72.4134 166.057 72.4832 166.358 72.4832C166.659 72.4832 166.941 72.4124 167.205 72.2718V72.2709Z" fill="#C6C6C6"/>
<path d="M171.629 68.2973C171.957 68.1038 172.339 68.0076 172.775 68.0076C173.211 68.0076 173.63 68.1151 173.995 68.3293C174.361 68.5445 174.647 68.8465 174.856 69.2362C175.065 69.6259 175.169 70.0788 175.169 70.5941C175.169 71.1093 175.065 71.5575 174.856 71.9567C174.647 72.3558 174.361 72.6653 173.995 72.8871C173.63 73.1079 173.223 73.2183 172.775 73.2183C172.327 73.2183 171.967 73.1221 171.638 72.9286C171.31 72.7352 171.06 72.4945 170.888 72.2058V75.5293H170.05V68.0897H170.888V69.0201C171.054 68.7313 171.3 68.4907 171.629 68.2973ZM174.082 69.6004C173.928 69.3183 173.722 69.1031 173.46 68.9559C173.199 68.8087 172.912 68.7351 172.6 68.7351C172.287 68.7351 172.009 68.8106 171.749 68.9606C171.487 69.1107 171.279 69.3287 171.123 69.6146C170.966 69.8995 170.888 70.2298 170.888 70.6044C170.888 70.9791 170.966 71.3178 171.123 71.6037C171.28 71.8897 171.488 72.1067 171.749 72.2577C172.009 72.4077 172.293 72.4832 172.6 72.4832C172.906 72.4832 173.2 72.4077 173.46 72.2577C173.721 72.1076 173.928 71.8897 174.082 71.6037C174.235 71.3188 174.312 70.9819 174.312 70.596C174.312 70.21 174.236 69.8845 174.082 69.6014V69.6004Z" fill="#C6C6C6"/>
<path d="M183.39 68.2425C183.697 68.4048 183.94 68.6492 184.118 68.9748C184.296 69.3003 184.385 69.6957 184.385 70.1628V73.1371H183.556V70.2826C183.556 69.7797 183.432 69.3937 183.184 69.1267C182.935 68.8596 182.599 68.7266 182.176 68.7266C181.753 68.7266 181.394 68.8663 181.135 69.1456C180.877 69.4249 180.748 69.8288 180.748 70.3563V73.1371H179.92V70.2826C179.92 69.7797 179.795 69.3937 179.547 69.1267C179.299 68.8596 178.962 68.7266 178.539 68.7266C178.116 68.7266 177.757 68.8663 177.498 69.1456C177.241 69.4249 177.111 69.8288 177.111 70.3563V73.1371H176.273V68.0915H177.111V68.8191C177.277 68.5549 177.499 68.3529 177.779 68.2114C178.058 68.0698 178.366 68 178.704 68C179.128 68 179.503 68.0953 179.827 68.285C180.153 68.4756 180.395 68.7549 180.555 69.1229C180.696 68.7672 180.929 68.4907 181.255 68.2944C181.58 68.0981 181.942 68 182.341 68C182.74 68 183.084 68.0812 183.39 68.2435V68.2425Z" fill="#C6C6C6"/>
<path d="M190.333 70.9262H186.299C186.33 71.4235 186.5 71.8113 186.811 72.0907C187.12 72.37 187.497 72.5096 187.939 72.5096C188.301 72.5096 188.603 72.4257 188.845 72.2567C189.088 72.0878 189.258 71.8623 189.357 71.5802H190.259C190.124 72.0652 189.854 72.4596 189.448 72.7635C189.044 73.0673 188.54 73.2192 187.939 73.2192C187.46 73.2192 187.032 73.1117 186.654 72.8975C186.277 72.6823 185.981 72.3775 185.765 71.9812C185.55 71.5849 185.443 71.1263 185.443 70.6044C185.443 70.0826 185.547 69.625 185.756 69.2324C185.964 68.8399 186.258 68.5369 186.635 68.3256C187.013 68.1142 187.447 68.0076 187.939 68.0076C188.43 68.0076 188.841 68.1123 189.209 68.3209C189.577 68.5294 189.861 68.8163 190.06 69.1814C190.259 69.5466 190.359 69.959 190.359 70.4195C190.359 70.579 190.35 70.7479 190.332 70.9262H190.333ZM189.283 69.4211C189.142 69.1909 188.95 69.0163 188.708 68.8965C188.465 68.7766 188.196 68.7172 187.902 68.7172C187.478 68.7172 187.118 68.8521 186.82 69.122C186.522 69.3919 186.352 69.7665 186.309 70.2449H189.495C189.495 69.926 189.424 69.6514 189.283 69.4211Z" fill="#C6C6C6"/>
<path d="M195.415 68.5558C195.795 68.9276 195.986 69.4626 195.986 70.1628V73.1371H195.157V70.2826C195.157 69.7797 195.032 69.3937 194.78 69.1267C194.528 68.8596 194.184 68.7266 193.748 68.7266C193.312 68.7266 192.955 68.8643 192.694 69.1408C192.433 69.4173 192.303 69.8193 192.303 70.3468V73.1362H191.465V68.0906H192.303V68.8087C192.469 68.551 192.694 68.351 192.979 68.2104C193.265 68.0689 193.58 67.999 193.923 67.999C194.536 67.999 195.034 68.1849 195.415 68.5558Z" fill="#C6C6C6"/>
<path d="M198.38 68.7814V71.7548C198.38 72.0001 198.432 72.1737 198.536 72.2747C198.641 72.3757 198.821 72.4266 199.08 72.4266H199.697V73.1353H198.942C198.476 73.1353 198.126 73.0277 197.893 72.8126C197.66 72.5974 197.543 72.2445 197.543 71.7538V68.7805H196.889V68.0897H197.543V66.8196H198.381V68.0897H199.697V68.7805H198.381L198.38 68.7814Z" fill="#C6C6C6"/>
</g>
<defs>
<linearGradient id="paint0_linear_297_656" x1="-16.5239" y1="63.5594" x2="59.7093" y2="-17.9705" gradientUnits="userSpaceOnUse">
<stop stop-color="#4E7CF2"/>
<stop offset="1" stop-color="#1B44FA"/>
</linearGradient>
<linearGradient id="paint1_linear_297_656" x1="-9.9261" y1="69.7288" x2="66.3071" y2="-11.801" gradientUnits="userSpaceOnUse">
<stop stop-color="#4E7CF2"/>
<stop offset="1" stop-color="#1B5AFA"/>
</linearGradient>
<linearGradient id="paint2_linear_297_656" x1="-11.7617" y1="68.0123" x2="64.4725" y2="-13.5175" gradientUnits="userSpaceOnUse">
<stop stop-color="#4E7CF2"/>
<stop offset="1" stop-color="#1B5AFA"/>
</linearGradient>
<linearGradient id="paint3_linear_297_656" x1="10.2566" y1="88.6005" x2="86.4907" y2="7.07072" gradientUnits="userSpaceOnUse">
<stop stop-color="#4E7CF2"/>
<stop offset="1" stop-color="#1B5AFA"/>
</linearGradient>
<linearGradient id="paint4_linear_297_656" x1="11.6414" y1="89.8952" x2="87.8755" y2="8.36538" gradientUnits="userSpaceOnUse">
<stop stop-color="#4E7CF2"/>
<stop offset="1" stop-color="#1B5AFA"/>
</linearGradient>
<linearGradient id="paint5_linear_297_656" x1="22.766" y1="100.298" x2="99.0001" y2="18.768" gradientUnits="userSpaceOnUse">
<stop stop-color="#4E7CF2"/>
<stop offset="1" stop-color="#1B5AFA"/>
</linearGradient>
<linearGradient id="paint6_linear_297_656" x1="21.0676" y1="98.7097" x2="97.3017" y2="17.1799" gradientUnits="userSpaceOnUse">
<stop stop-color="#4E7CF2"/>
<stop offset="1" stop-color="#1B5AFA"/>
</linearGradient>
<clipPath id="clip0_297_656">
<rect width="200" height="81.5798" fill="white"/>
</clipPath>
</defs>
</svg>
