<svg width="30" height="38" viewBox="0 0 30 38" fill="none" xmlns="http://www.w3.org/2000/svg">
<g clip-path="url(#clip0_176_343)">
<path d="M19.5589 9.29079C19.7674 9.29079 19.9368 9.14746 19.9498 8.91291C20.3277 5.85073 20.471 5.77254 23.5853 5.25132C23.8459 5.22526 23.9892 5.09495 23.9892 4.87343C23.9892 4.66494 23.8459 4.53464 23.6374 4.49554C20.497 3.89614 20.3277 3.90917 19.9498 0.846987C19.9368 0.612436 19.7674 0.4691 19.5589 0.4691C19.3634 0.4691 19.207 0.612436 19.1941 0.833956C18.7771 3.94825 18.6858 4.03947 15.4933 4.49554C15.2849 4.5216 15.1416 4.66494 15.1416 4.87343C15.1416 5.08191 15.2849 5.22526 15.4933 5.25132C18.6858 5.87679 18.764 5.86375 19.1941 8.93897C19.207 9.14746 19.3634 9.29079 19.5589 9.29079ZM10.8414 5.77254C10.9848 5.77254 11.102 5.69436 11.1411 5.52495C11.493 3.57037 11.493 3.55735 13.4606 3.19249C13.6299 3.15339 13.7343 3.04916 13.7343 2.89279C13.7343 2.72339 13.6299 2.61914 13.4606 2.58005C11.493 2.18913 11.5451 2.1761 11.1411 0.260611C11.102 0.091214 10.9978 0 10.8414 0C10.6851 0 10.5678 0.104244 10.5417 0.260611C10.1247 2.1761 10.1899 2.18913 8.20925 2.58005C8.03986 2.61914 7.93562 2.73642 7.93562 2.89279C7.93562 3.03612 8.03986 3.15339 8.20925 3.19249C10.1899 3.58341 10.1638 3.57037 10.5417 5.52495C10.5678 5.68132 10.6851 5.77254 10.8414 5.77254ZM3.73977 34.7656C3.93523 34.7656 4.03947 34.6483 4.06554 34.4659C4.53464 31.9118 4.5216 31.8598 7.19286 31.3515C7.38833 31.2994 7.49257 31.2082 7.49257 31.0128C7.49257 30.8173 7.38833 30.726 7.19286 30.6869C4.53464 30.1528 4.59979 30.1006 4.06554 27.5596C4.03947 27.3772 3.93523 27.26 3.73977 27.26C3.55735 27.26 3.46613 27.3772 3.414 27.5596C2.87975 30.1006 2.984 30.1528 0.299702 30.6869C0.117275 30.726 0 30.8173 0 31.0128C0 31.2082 0.117275 31.2994 0.299702 31.3515C2.984 31.8727 2.93188 31.9118 3.414 34.4659C3.46613 34.6483 3.55735 34.7656 3.73977 34.7656ZM23.7808 31.0388C27.0254 27.8072 27.5466 23.7677 25.3184 19.0897L22.3864 12.9003C22.178 12.4702 21.9304 12.1184 21.6568 11.8448C20.6794 10.8675 19.2592 10.9196 18.321 11.8708C17.6825 12.4963 17.4871 13.4475 17.904 14.49L18.7771 16.5618C18.79 16.614 18.8031 16.666 18.764 16.7051C18.7118 16.7573 18.6598 16.7442 18.6076 16.6922L11.2193 9.30383C10.1378 8.22229 8.79564 8.22229 7.76621 9.25169C7.38833 9.62959 7.17984 10.0987 7.1668 10.5938C6.0983 9.77292 4.91252 9.79898 3.98735 10.7242C3.10128 11.6102 3.07522 12.8351 3.84402 13.8776C3.37492 13.8776 2.93188 14.086 2.59308 14.4248C1.62882 15.376 1.66791 16.6791 2.6843 17.7086L3.71371 18.7249C3.20551 18.7118 2.69732 18.9464 2.29338 19.3504C1.34215 20.3016 1.39427 21.6698 2.42369 22.6992L10.3463 30.6218C14.6593 34.9349 19.8846 34.9349 23.7808 31.0388ZM22.4646 29.814C19.1941 33.0716 15.1154 32.9673 11.4148 29.2536L3.76584 21.6177C3.37492 21.2268 3.34886 20.7056 3.73977 20.3146C4.11766 19.9368 4.66494 19.9368 5.05586 20.3277L9.75989 25.0447C10.1117 25.3835 10.6069 25.3314 10.9066 25.0318C11.2193 24.719 11.2714 24.2107 10.9326 23.872L3.89614 16.8224C3.50522 16.4316 3.47916 15.9103 3.85704 15.5324C4.23494 15.1545 4.78221 15.1545 5.18617 15.5455L11.7536 22.1129C12.0924 22.4517 12.6006 22.4126 12.9003 22.0998C13.213 21.7871 13.2651 21.279 12.9263 20.9402L5.21223 13.226C4.82131 12.8351 4.79525 12.2878 5.18617 11.9099C5.55102 11.5321 6.0983 11.5581 6.50226 11.949L14.2163 19.6631C14.5291 19.9758 15.0372 19.9628 15.35 19.6501C15.6757 19.3243 15.7019 18.8162 15.376 18.4903L8.80866 11.9099C8.41774 11.519 8.40472 10.9848 8.7826 10.6069C9.17352 10.216 9.69473 10.229 10.0987 10.6329L19.1679 19.7022C19.624 20.1583 20.1583 20.1583 20.5492 19.7674C20.8749 19.4416 21.0184 19.0115 20.7576 18.347L19.1288 14.06C18.9073 13.4866 19.1028 13.0045 19.5589 12.796C20.041 12.5745 20.471 12.796 20.7707 13.4215L23.7938 19.8195C25.8135 24.0935 25.0318 27.2339 22.4646 29.814ZM11.102 8.07895C10.7111 8.4438 10.5157 8.92593 10.4896 9.4211L12.1315 10.7372C11.7405 10.3593 11.7275 9.81202 12.1184 9.4211C12.4963 9.04321 13.0306 9.06928 13.4215 9.46018L17.8519 13.8906L18.9073 12.4833L14.5421 8.13107C13.4606 7.04953 12.1315 7.04953 11.102 8.07895ZM27.1036 29.8791C30.3481 26.6344 30.8695 22.595 28.6542 17.917L25.7093 11.7145C25.1751 10.5678 24.276 9.96838 23.2075 9.96838C22.3604 9.96838 20.914 10.5548 20.914 12.2618C20.914 12.4051 20.914 12.5484 20.9402 12.7048L22.4777 13.1348C22.3995 12.9654 22.3474 12.796 22.3474 12.5745C22.3474 12.1575 22.6992 11.7405 23.2595 11.7405C23.6114 11.7405 23.9763 11.9881 24.1716 12.4051L27.1296 18.6467C29.1494 22.9078 28.3805 26.0741 25.7875 28.6282C24.745 29.6706 23.6114 30.3743 22.4386 30.7131L20.5361 32.7198C22.8816 32.7849 25.162 31.8207 27.1036 29.8791Z" fill="white"/>
</g>
<defs>
<clipPath id="clip0_176_343">
<rect width="30" height="37.0459" fill="white"/>
</clipPath>
</defs>
</svg>
