<svg width="157" height="39" viewBox="0 0 157 39" fill="none" xmlns="http://www.w3.org/2000/svg">
<g clip-path="url(#clip0_890_939)">
<path d="M49 26.1673L61.3041 12.6824V12.3782H49V9.27637H65.2526V13.1533L52.9486 26.6382V26.9146H65.4399V30.0427H49V26.1658V26.1673Z" fill="white"/>
<path d="M67.1328 30.0442L75.352 9.27637H79.1403L87.3879 30.0427H83.9232L81.8276 24.699H72.479L70.3833 30.0427H67.1328V30.0442ZM77.0177 13.1533L73.6324 21.764H80.6712L77.2858 13.1533H77.0177Z" fill="white"/>
<path d="M90.5029 30.0442V9.27637H94.7211L104.957 25.4463H105.225V9.27637H108.367V30.0427H104.149L93.9137 13.845H93.6456V30.0427H90.5029V30.0442Z" fill="white"/>
<path d="M130.555 22.9285C130.555 25.3278 129.758 27.1605 128.165 28.425C126.571 29.6895 124.27 30.321 121.261 30.321C118.251 30.321 115.95 29.6895 114.357 28.425C112.763 27.1605 111.966 25.3278 111.966 22.9285V16.3945C111.966 13.9951 112.763 12.1624 114.357 10.8979C115.95 9.63343 118.251 9.00195 121.261 9.00195C124.27 9.00195 126.571 9.63343 128.165 10.8979C129.758 12.1624 130.555 13.9951 130.555 16.3945V22.9285ZM125.855 26.0303C126.911 25.2553 127.44 24.1112 127.44 22.5966V16.7264C127.44 15.2133 126.911 14.0631 125.855 13.2787C124.799 12.4944 123.266 12.1022 121.261 12.1022C119.255 12.1022 117.751 12.4944 116.693 13.2787C115.637 14.0631 115.108 15.2118 115.108 16.7264V22.5966C115.108 24.0911 115.633 25.2321 116.68 26.0164C117.727 26.8008 119.255 27.1929 121.261 27.1929C123.266 27.1929 124.797 26.8054 125.855 26.0303Z" fill="white"/>
<path d="M136.275 28.4231C134.682 27.1586 133.885 25.3259 133.885 22.9266V16.3925C133.885 13.9932 134.682 12.1605 136.275 10.896C137.869 9.63148 140.152 9 143.126 9C144.271 9 145.435 9.08801 146.617 9.26247C147.799 9.43849 148.882 9.68243 149.868 9.99586L149.17 13.0421C148.436 12.7843 147.526 12.5712 146.443 12.406C145.36 12.2392 144.307 12.1574 143.287 12.1574C141.264 12.1574 139.715 12.5542 138.639 13.3478C137.565 14.1414 137.027 15.2855 137.027 16.7816V22.5406C137.027 24.0722 137.574 25.2271 138.666 26.0021C139.758 26.7772 141.361 27.1647 143.475 27.1647C144.638 27.1647 145.739 27.0628 146.779 26.8606C147.817 26.6583 148.794 26.3619 149.707 25.9743V29.2136C148.74 29.5641 147.693 29.8373 146.565 30.0303C145.437 30.2249 144.3 30.3206 143.153 30.3206C140.161 30.3206 137.869 29.6891 136.275 28.4246V28.4231Z" fill="white"/>
<path d="M153.28 30.0442V9.27637H156.423V30.0427H153.28V30.0442Z" fill="white"/>
</g>
<g clip-path="url(#clip1_890_939)">
<path d="M1.60156 12.3346L4.73883 16.8375C5.72966 16.2332 7.36187 15.4037 9.54037 14.9965C12.0982 14.5189 14.2159 14.847 15.419 15.1254C12.2983 12.0064 9.17655 8.88749 6.05588 5.76855L7.22475 11.2364C6.3821 11.2938 5.43108 11.4054 4.40044 11.6057C3.351 11.8093 2.41325 12.0671 1.60156 12.3346Z" fill="url(#paint0_linear_890_939)"/>
<path d="M1.5913 27.6049L7.06078 28.6164C7.32507 27.5031 7.8802 25.7855 9.12648 23.9899C10.5895 21.8814 12.3246 20.6468 13.3762 20.0101C8.91748 19.9656 4.45874 19.9212 0 19.8779L4.77501 22.9351C4.22098 23.56 3.62936 24.2964 3.04437 25.152C2.44943 26.0227 1.97282 26.8544 1.5913 27.606V27.6049Z" fill="url(#paint1_linear_890_939)"/>
<path d="M20.5066 0V12.9447C19.8309 11.8595 18.3734 9.85823 15.7537 8.39514C14.1569 7.50386 12.6563 7.10641 11.5869 6.91798C11.9541 5.07369 12.3212 3.22832 12.6883 1.38403C13.489 1.82263 14.346 2.3392 15.2351 2.94783C16.0003 3.4709 16.6915 3.99614 17.3107 4.50297C18.3757 3.00198 19.4406 1.50099 20.5066 0Z" fill="url(#paint2_linear_890_939)"/>
<path d="M19.3458 21.1182L17.4061 35.3646L12.6289 38.5658L11.5872 33.0773L6.05469 34.2036L19.3458 21.1182Z" fill="url(#paint3_linear_890_939)"/>
<path d="M39.3995 12.3346L36.2622 16.8375C35.2714 16.2332 33.6392 15.4037 31.4607 14.9965C28.9029 14.5189 26.7852 14.847 25.582 15.1254C28.7027 12.0064 31.8245 8.88749 34.9452 5.76855L33.7763 11.2364C34.6189 11.2938 35.57 11.4054 36.6006 11.6057C37.65 11.8093 38.5878 12.0671 39.3995 12.3346Z" fill="url(#paint4_linear_890_939)"/>
<path d="M39.4099 27.6049L33.9404 28.6164C33.6761 27.5031 33.121 25.7855 31.8747 23.9899C30.4117 21.8814 28.6767 20.6468 27.625 20.0101C32.0837 19.9656 36.5425 19.9212 41.0012 19.8779L36.2262 22.9351C36.7802 23.56 37.3719 24.2964 37.9568 25.152C38.5518 26.0227 39.0284 26.8544 39.4099 27.606V27.6049Z" fill="url(#paint5_linear_890_939)"/>
<path d="M20.507 0V12.9447C21.1826 11.8595 22.6401 9.85823 25.2599 8.39514C26.8567 7.50386 28.3573 7.10641 29.4267 6.91798C29.0595 5.07369 28.6924 3.22832 28.3252 1.38403C27.5246 1.82263 26.6676 2.3392 25.7785 2.94783C25.0133 3.4709 24.3221 3.99614 23.7028 4.50297C22.6368 3.00198 21.5719 1.50099 20.5059 0L20.507 0Z" fill="url(#paint6_linear_890_939)"/>
<path d="M21.6562 21.1182L23.5959 35.3646L28.3731 38.5658L29.4148 33.0773L34.9462 34.2036L21.6562 21.1182Z" fill="url(#paint7_linear_890_939)"/>
</g>
<defs>
<linearGradient id="paint0_linear_890_939" x1="-5.02351" y1="29.2895" x2="24.8699" y2="-7.97718" gradientUnits="userSpaceOnUse">
<stop stop-color="#4E7CF2"/>
<stop offset="1" stop-color="#1B5AFA"/>
</linearGradient>
<linearGradient id="paint1_linear_890_939" x1="-2.42842" y1="31.3714" x2="27.4639" y2="-5.89518" gradientUnits="userSpaceOnUse">
<stop stop-color="#4E7CF2"/>
<stop offset="1" stop-color="#1B5AFA"/>
</linearGradient>
<linearGradient id="paint2_linear_890_939" x1="-3.15944" y1="30.7854" x2="26.734" y2="-6.48121" gradientUnits="userSpaceOnUse">
<stop stop-color="#4E7CF2"/>
<stop offset="1" stop-color="#1B5AFA"/>
</linearGradient>
<linearGradient id="paint3_linear_890_939" x1="7.75325" y1="39.5394" x2="37.6467" y2="2.27275" gradientUnits="userSpaceOnUse">
<stop stop-color="#4E7CF2"/>
<stop offset="1" stop-color="#1B5AFA"/>
</linearGradient>
<linearGradient id="paint4_linear_890_939" x1="9.82826" y1="41.2032" x2="39.7206" y2="3.93654" gradientUnits="userSpaceOnUse">
<stop stop-color="#4E7CF2"/>
<stop offset="1" stop-color="#1B5AFA"/>
</linearGradient>
<linearGradient id="paint5_linear_890_939" x1="15.2971" y1="45.5908" x2="45.1905" y2="8.32412" gradientUnits="userSpaceOnUse">
<stop stop-color="#4E7CF2"/>
<stop offset="1" stop-color="#1B5AFA"/>
</linearGradient>
<linearGradient id="paint6_linear_890_939" x1="-0.00523257" y1="33.3152" x2="29.8882" y2="-3.95141" gradientUnits="userSpaceOnUse">
<stop stop-color="#4E7CF2"/>
<stop offset="1" stop-color="#1B5AFA"/>
</linearGradient>
<linearGradient id="paint7_linear_890_939" x1="14.1045" y1="44.6337" x2="43.9979" y2="7.3681" gradientUnits="userSpaceOnUse">
<stop stop-color="#4E7CF2"/>
<stop offset="1" stop-color="#1B5AFA"/>
</linearGradient>
<clipPath id="clip0_890_939">
<rect width="107.423" height="21.3206" fill="white" transform="translate(49 9)"/>
</clipPath>
<clipPath id="clip1_890_939">
<rect width="41.0012" height="38.5654" fill="white"/>
</clipPath>
</defs>
</svg>
