<svg width="100" height="100" viewBox="0 0 100 100" fill="none" xmlns="http://www.w3.org/2000/svg">
<circle cx="50" cy="50" r="50" fill="white"/>
<path d="M22.0634 37.6029H23.6245C24.6259 37.6029 25.3622 36.8666 25.3622 35.8652V23.642C25.3622 22.6406 24.6259 21.9043 23.6245 21.9043H22.0634C21.062 21.9043 20.3257 22.6406 20.3257 23.642V35.8652C20.3257 36.8666 21.062 37.6029 22.0634 37.6029ZM22.0634 59.1921H23.6245C24.6259 59.1921 25.3622 58.4559 25.3622 57.4545V45.2608C25.3622 44.2594 24.6259 43.523 23.6245 43.523H22.0634C21.062 43.523 20.3257 44.2594 20.3257 45.2608V57.4545C20.3257 58.4559 21.062 59.1921 22.0634 59.1921ZM22.0634 80.8109H23.6245C24.6259 80.8109 25.3622 80.0747 25.3622 79.1026V66.8501C25.3622 65.8487 24.6259 65.1122 23.6245 65.1122H22.0634C21.062 65.1122 20.3257 65.8487 20.3257 66.8501V79.1026C20.3257 80.0747 21.062 80.8109 22.0634 80.8109ZM76.3753 37.6029H77.9364C78.9377 37.6029 79.6743 36.8666 79.6743 35.8652V23.642C79.6743 22.6406 78.9377 21.9043 77.9364 21.9043H76.3753C75.374 21.9043 74.6375 22.6406 74.6375 23.642V35.8652C74.6375 36.8666 75.374 37.6029 76.3753 37.6029ZM76.3753 59.1921H77.9364C78.9377 59.1921 79.6743 58.4559 79.6743 57.4545V45.2608C79.6743 44.2594 78.9377 43.523 77.9364 43.523H76.3753C75.374 43.523 74.6375 44.2594 74.6375 45.2608V57.4545C74.6375 58.4559 75.374 59.1921 76.3753 59.1921ZM76.3753 80.8109H77.9364C78.9377 80.8109 79.6743 80.0747 79.6743 79.1026V66.8501C79.6743 65.8487 78.9377 65.1122 77.9364 65.1122H76.3753C75.374 65.1122 74.6375 65.8487 74.6375 66.8501V79.1026C74.6375 80.0747 75.374 80.8109 76.3753 80.8109ZM49.9556 78.0422C60.3823 78.0422 65.0653 75.6861 65.0653 69.6776V34.4514C65.0357 28.2662 59.3807 24.614 49.9851 24.6435C40.6484 24.6435 34.9346 28.2368 34.9346 34.4514V69.6776C34.9346 75.6861 39.588 78.0422 49.9556 78.0422ZM49.9851 46.9102C47.9822 46.9396 44.9487 47.1163 43.859 47.0869C42.1507 47.1163 41.4142 46.4389 41.267 44.6423L40.9136 40.7544C40.6484 37.544 42.769 36.2775 50.0147 36.2775C57.2601 36.3364 59.3514 37.544 59.0863 40.725L58.7624 44.6717C58.6149 46.4389 57.7903 47.1163 56.1408 47.1163C55.11 47.0869 51.8997 46.9396 49.9851 46.9102ZM49.9851 69.4713C42.7986 69.4125 40.5013 68.3816 41.0019 65.0239L41.267 63.1388C41.7089 60.4881 43.7706 59.6635 50.0147 59.693C56.2292 59.6635 58.291 60.4588 58.7328 63.1388L59.0275 65.0534C59.4986 68.3523 57.2013 69.4125 49.9851 69.4713ZM37.2319 45.9382V40.3715L33.7858 40.3421C32.431 40.3421 31.4296 41.3435 31.4296 42.61L31.4001 43.6703C31.4001 44.9368 32.431 45.9677 33.7562 45.9677L37.2319 45.9382ZM62.7975 45.9677H66.2433C67.5689 45.9677 68.5997 44.9368 68.5997 43.6703L68.5702 42.6395C68.5702 41.3435 67.5688 40.3421 66.2141 40.3421H62.7975V45.9677Z" fill="#236DF6"/>
</svg>
